<svg width="149" height="154" viewBox="0 0 149 154" fill="none" xmlns="http://www.w3.org/2000/svg">
<path d="M74.1344 96.2502C46.8282 96.2502 24.7114 107.736 24.7114 121.917V134.75H123.557V121.917C123.557 107.736 101.441 96.2502 74.1344 96.2502ZM49.4229 57.7502C49.4229 64.5574 52.0264 71.0858 56.6607 75.8992C61.295 80.7127 67.5805 83.4168 74.1344 83.4168C80.6883 83.4168 86.9737 80.7127 91.608 75.8992C96.2424 71.0858 98.8459 64.5574 98.8459 57.7502M71.0455 12.8335C69.1921 12.8335 67.9565 14.181 67.9565 16.0418V35.2918H61.7786V19.2502C61.7786 19.2502 47.8784 24.7685 47.8784 43.3127C47.8784 43.3127 43.245 44.211 43.245 51.3335H105.024C104.715 44.211 100.39 43.3127 100.39 43.3127C100.39 24.7685 86.4901 19.2502 86.4901 19.2502V35.2918H80.3123V16.0418C80.3123 14.181 79.1385 12.8335 77.2233 12.8335H71.0455Z" fill="url(#paint0_linear_1_5882)"/>
<defs>
<linearGradient id="paint0_linear_1_5882" x1="74.1344" y1="12.8335" x2="74.1344" y2="134.75" gradientUnits="userSpaceOnUse">
<stop stop-color="#3C8C98"/>
<stop offset="1" stop-color="#142E32"/>
</linearGradient>
</defs>
</svg>
