<svg width="141" height="109" viewBox="0 0 141 109" fill="none" xmlns="http://www.w3.org/2000/svg">
<path d="M53.8443 102.439H35.2133C25.6096 102.439 17.1585 99.2374 10.3079 92.3868C3.4573 85.6643 0 77.4052 0 67.7375C0 59.4144 2.49694 51.9876 7.49082 45.4571C12.5487 38.9267 19.2072 34.7651 27.2102 32.9724C29.8993 23.1767 35.2133 15.2377 43.2163 9.15545C51.2193 3.2012 60.3107 0 70.4265 0C82.9112 0 93.5392 4.35364 102.182 13.0609C110.89 21.7042 115.243 32.3322 115.243 44.8169C122.606 45.6492 128.752 48.8504 133.554 54.4205C137.652 59.0943 139.957 64.4083 140.597 70.4265H108.841C102.887 62.5516 93.5392 57.6217 83.2313 57.6217C65.3046 57.6217 51.2193 71.707 51.2193 89.6338C51.2193 94.2435 52.1796 98.5331 53.8443 102.439ZM140.853 83.2313V96.0362H128.048V108.841H115.243V96.0362H101.158C98.5971 103.719 91.5545 108.841 83.2313 108.841C72.3472 108.841 64.0241 100.518 64.0241 89.6338C64.0241 78.7497 72.3472 70.4265 83.2313 70.4265C91.5545 70.4265 98.5971 75.5484 101.158 83.2313H140.853ZM89.6338 89.6338C89.6338 86.4325 87.0728 83.2313 83.2313 83.2313C79.3899 83.2313 76.8289 86.4325 76.8289 89.6338C76.8289 92.835 79.3899 96.0362 83.2313 96.0362C87.0728 96.0362 89.6338 92.835 89.6338 89.6338Z" fill="url(#paint0_linear_1_5887)"/>
<defs>
<linearGradient id="paint0_linear_1_5887" x1="70.4265" y1="0" x2="70.4265" y2="108.841" gradientUnits="userSpaceOnUse">
<stop stop-color="#3C8C98"/>
<stop offset="1" stop-color="#142E32"/>
</linearGradient>
</defs>
</svg>
