<svg width="129" height="129" viewBox="0 0 129 129" fill="none" xmlns="http://www.w3.org/2000/svg">
<path d="M44.8169 128.048C43.1189 128.048 41.4904 127.374 40.2897 126.173C39.089 124.972 38.4145 123.344 38.4145 121.646V102.439H12.8048C9.40877 102.439 6.15181 101.09 3.75044 98.6881C1.34908 96.2868 0 93.0298 0 89.6338V12.8048C0 5.69815 5.76217 0 12.8048 0H115.243C118.639 0 121.896 1.34908 124.298 3.75044C126.699 6.15181 128.048 9.40877 128.048 12.8048V89.6338C128.048 93.0298 126.699 96.2868 124.298 98.6881C121.896 101.09 118.639 102.439 115.243 102.439H76.1887L52.4998 126.192C51.2193 127.408 49.6187 128.048 48.0181 128.048H44.8169ZM89.6338 76.8289V70.4265C89.6338 61.9113 72.5393 57.6217 64.0241 57.6217C55.5089 57.6217 38.4145 61.9113 38.4145 70.4265V76.8289H89.6338ZM64.0241 25.6096C60.6281 25.6096 57.3711 26.9587 54.9697 29.3601C52.5684 31.7615 51.2193 35.0184 51.2193 38.4145C51.2193 41.8105 52.5684 45.0675 54.9697 47.4688C57.3711 49.8702 60.6281 51.2193 64.0241 51.2193C67.4202 51.2193 70.6771 49.8702 73.0785 47.4688C75.4799 45.0675 76.8289 41.8105 76.8289 38.4145C76.8289 35.0184 75.4799 31.7615 73.0785 29.3601C70.6771 26.9587 67.4202 25.6096 64.0241 25.6096Z" fill="url(#paint0_linear_1_5899)"/>
<defs>
<linearGradient id="paint0_linear_1_5899" x1="64.0241" y1="0" x2="64.0241" y2="128.048" gradientUnits="userSpaceOnUse">
<stop stop-color="#3C8C98"/>
<stop offset="1" stop-color="#142E32"/>
</linearGradient>
</defs>
</svg>
